<svg xmlns="http://www.w3.org/2000/svg">
    <symbol id="icon__transport" width="24" height="24" viewBox="0 0 24 24" fill="none" xmlns="http://www.w3.org/2000/svg">
        <path d="M22.5 11.25H16.5V7.5H20.4922C20.6421 7.5 20.7886 7.54491 20.9127 7.62895C21.0368 7.71298 21.1329 7.83228 21.1886 7.97146L22.5 11.25Z"  stroke-width="2" stroke-linecap="round" stroke-linejoin="round"/>
        <path d="M17.625 20.25C18.8676 20.25 19.875 19.2426 19.875 18C19.875 16.7574 18.8676 15.75 17.625 15.75C16.3824 15.75 15.375 16.7574 15.375 18C15.375 19.2426 16.3824 20.25 17.625 20.25Z" stroke-width="2" stroke-miterlimit="10"/>
        <path d="M6.375 20.25C7.61764 20.25 8.625 19.2426 8.625 18C8.625 16.7574 7.61764 15.75 6.375 15.75C5.13236 15.75 4.125 16.7574 4.125 18C4.125 19.2426 5.13236 20.25 6.375 20.25Z"  stroke-width="2" stroke-miterlimit="10"/>
        <path d="M15.375 18H8.625" stroke-width="2" stroke-linecap="round" stroke-linejoin="round"/>
        <path d="M4.125 18H2.25C2.05109 18 1.86032 17.921 1.71967 17.7803C1.57902 17.6397 1.5 17.4489 1.5 17.25V6.75C1.5 6.55109 1.57902 6.36032 1.71967 6.21967C1.86032 6.07902 2.05109 6 2.25 6H16.5V16.0514" stroke-width="2" stroke-linecap="round" stroke-linejoin="round"/>
        <path d="M16.5 16.0514V11.25H22.5V17.25C22.5 17.4489 22.421 17.6397 22.2803 17.7803C22.1397 17.921 21.9489 18 21.75 18H19.875"  stroke-width="2" stroke-linecap="round" stroke-linejoin="round"/>
    </symbol>
    <symbol id="icon__enter" xmlns="http://www.w3.org/2000/svg" width="14" height="14" viewBox="0 0 24 24" fill="none" stroke="currentColor" stroke-width="2" stroke-linecap="round" stroke-linejoin="round" class="feather feather-log-in">
        <path d="M15 3h4a2 2 0 0 1 2 2v14a2 2 0 0 1-2 2h-4"></path>
        <polyline points="10 17 15 12 10 7"></polyline>
        <line x1="15" y1="12" x2="3" y2="12">
        </line>
    </symbol>
    <symbol id="icon__logo" width="160" height="46" viewBox="0 0 160 46" fill="none" xmlns="http://www.w3.org/2000/svg">
    <path d="M21.6397 37.344H21.7016L36.3547 1.11292H43.1558V21.887H38.7042V6.87279H38.5805L22.7526 44.8969H20.4032L4.57526 6.87279H4.4516V44.8969H0V1.1228H6.80106L21.6397 37.344Z" fill="white"/>
    <path d="M107.209 23C107.244 26.1547 106.656 29.2853 105.478 32.2123C104.389 34.9284 102.762 37.3964 100.696 39.4681C98.6289 41.5399 96.1649 43.1728 93.4516 44.2688C87.6337 46.5771 81.154 46.5771 75.336 44.2688C72.6227 43.1733 70.1588 41.5405 68.0925 39.4687C66.0262 37.3968 64.4 34.9286 63.3118 32.2123C61.0035 26.2877 61.0035 19.7123 63.3118 13.7877C64.401 11.072 66.0275 8.60429 68.0937 6.53256C70.1599 4.46082 72.6233 2.82774 75.336 1.73125C81.154 -0.577082 87.6337 -0.577082 93.4516 1.73125C96.1644 2.8282 98.6278 4.46143 100.694 6.53309C102.761 8.60474 104.388 11.0722 105.478 13.7877C106.655 16.7148 107.244 19.8453 107.209 23ZM102.511 23.0322C102.522 20.5512 102.104 18.087 101.274 15.7488C100.486 13.5075 99.2681 11.4417 97.688 9.66747C96.091 7.8972 94.1429 6.47885 91.9677 5.50274C89.5729 4.48284 86.9968 3.95712 84.3938 3.95712C81.7909 3.95712 79.2147 4.48284 76.8199 5.50274C74.6455 6.4789 72.6982 7.89726 71.1021 9.66747C69.5203 11.4404 68.3019 13.5066 67.5161 15.7488C65.8673 20.4644 65.8673 25.5999 67.5161 30.3155C68.2974 32.5502 69.5165 34.6067 71.1021 36.3647C72.7048 38.1206 74.6509 39.5288 76.8199 40.5022C79.2155 41.5189 81.7914 42.0429 84.3938 42.0429C86.9963 42.0429 89.5721 41.5189 91.9677 40.5022C94.1375 39.5289 96.0844 38.1207 97.688 36.3647C99.2716 34.6053 100.49 32.5492 101.274 30.3155C102.103 27.9805 102.521 25.5197 102.511 23.042V23.0322Z" fill="white"/>
    <path d="M155.497 8.16139C154.54 6.83593 153.292 5.74716 151.849 4.9785C150.365 4.17556 148.572 3.77326 146.47 3.77162C145.359 3.77769 144.256 3.94429 143.193 4.26624C142.101 4.58652 141.075 5.09998 140.163 5.78226C139.253 6.4663 138.503 7.34173 137.967 8.34687C137.389 9.47396 137.102 10.7282 137.134 11.9947C137.134 13.3978 137.401 14.5519 137.935 15.4571C138.474 16.3708 139.198 17.1612 140.062 17.7768C140.991 18.4396 142.009 18.9699 143.084 19.3522C144.215 19.766 145.397 20.1782 146.628 20.5888C148.148 21.0834 149.679 21.6192 151.221 22.1963C152.709 22.7449 154.111 23.5054 155.383 24.4542C156.631 25.3988 157.662 26.6006 158.405 27.9784C159.187 29.4013 159.577 31.2042 159.577 33.3871C159.577 35.57 159.16 37.4562 158.326 39.0456C157.542 40.5739 156.435 41.9132 155.081 42.9704C153.72 44.0163 152.171 44.7927 150.518 45.258C148.842 45.7478 147.104 45.9976 145.357 46C144.028 45.9991 142.702 45.8649 141.4 45.5993C140.102 45.3377 138.837 44.933 137.628 44.3925C136.432 43.8588 135.31 43.1731 134.29 42.3521C133.259 41.5305 132.344 40.5739 131.569 39.5081L135.403 36.664C136.394 38.2762 137.762 39.6239 139.389 40.5913C141.101 41.6432 143.111 42.1683 145.419 42.1667C146.572 42.1613 147.718 41.9846 148.819 41.6424C149.95 41.3035 151.008 40.7585 151.94 40.0348C152.871 39.3087 153.649 38.405 154.228 37.3762C154.845 36.2498 155.155 34.9805 155.126 33.6963C155.126 32.1728 154.826 30.9058 154.228 29.8951C153.63 28.8858 152.818 28.0204 151.849 27.3601C150.794 26.6478 149.651 26.0759 148.448 25.6586C147.171 25.2069 145.831 24.7535 144.43 24.2984C142.985 23.8467 141.563 23.3314 140.163 22.7527C138.798 22.1984 137.526 21.4377 136.392 20.4973C135.266 19.553 134.349 18.3838 133.701 17.0646C133.022 15.7044 132.682 14.035 132.682 12.0565C132.682 9.95439 133.104 8.14078 133.948 6.61569C134.76 5.13016 135.89 3.84231 137.257 2.8442C138.618 1.85526 140.148 1.12201 141.771 0.680228C143.361 0.235233 145.004 0.00647405 146.655 0.00012207C149.623 0.00012207 152.158 0.526071 154.26 1.57797C156.362 2.62986 157.949 3.87631 159.021 5.31731L155.497 8.16139Z" fill="white"/>
    <path d="M43.1581 27.9611H41.1994V32.012C41.1942 32.2271 41.2192 32.4419 41.2735 32.6501C41.3112 32.7971 41.3852 32.9323 41.4887 33.0433C41.5811 33.1359 41.6962 33.2025 41.8226 33.2362C41.9582 33.2717 42.0979 33.2892 42.2381 33.2881C42.3859 33.2869 42.533 33.267 42.6758 33.2288C42.8271 33.19 42.9738 33.1353 43.1135 33.0656L43.1581 33.9411C42.978 34.0108 42.7917 34.063 42.6016 34.0969C42.3933 34.1328 42.1823 34.1502 41.971 34.1488C41.7709 34.1473 41.5717 34.1224 41.3774 34.0746C41.1664 34.0236 40.969 33.9274 40.7987 33.7927C40.6107 33.6415 40.4608 33.4484 40.361 33.2288C40.236 32.9335 40.1777 32.6143 40.1903 32.294V27.9611H38.751V27.1153H40.1903V25.1566H41.1994V27.1153H43.1581V27.9611Z" fill="white"/>
    <path d="M55.5484 27.9166C55.5385 27.6198 55.5237 27.3527 55.5039 27.1153H56.4684C56.4882 27.3032 56.503 27.511 56.5129 27.7385C56.5228 27.966 56.5278 28.154 56.5278 28.3024H56.5574C56.7553 27.8955 57.0639 27.5526 57.4478 27.3131C57.8467 27.0599 58.3108 26.9284 58.7832 26.9347C58.9118 26.9347 59.0281 26.9397 59.132 26.9496C59.2398 26.9602 59.3465 26.9801 59.451 27.0089L59.3174 27.9734C59.2203 27.9458 59.121 27.9259 59.0207 27.9141C58.8831 27.8944 58.7442 27.8845 58.6052 27.8844C58.3408 27.8839 58.0789 27.9343 57.8336 28.0328C57.5832 28.1319 57.3614 28.2917 57.1881 28.4977C56.9897 28.7385 56.8387 29.0145 56.7429 29.3114C56.6212 29.6967 56.5635 30.0994 56.5723 30.5034V34.0573H55.5633V28.6412C55.5633 28.4549 55.5583 28.2133 55.5484 27.9166Z" fill="white"/>
    <path d="M75.9368 29.5636C75.9558 29.3194 75.9233 29.0739 75.8416 28.8431C75.7598 28.6122 75.6304 28.401 75.4619 28.2232C75.0752 27.9053 74.5813 27.7478 74.0819 27.783C73.6851 27.7791 73.2916 27.8548 72.9245 28.0056C72.5867 28.1419 72.2791 28.3436 72.0194 28.5991L71.4555 27.9314C71.7817 27.6195 72.1679 27.3771 72.5907 27.2191C73.0995 27.0241 73.641 26.9284 74.1858 26.9372C74.5429 26.9345 74.8983 26.987 75.2394 27.093C75.5542 27.1906 75.8467 27.3494 76.1 27.5604C76.3515 27.7739 76.5497 28.0432 76.6787 28.3469C76.8242 28.6995 76.8949 29.0784 76.8864 29.4598V32.5017C76.8864 32.7688 76.8963 33.0458 76.9161 33.3327C76.9305 33.5767 76.9603 33.8195 77.0052 34.0598H76.1C76.0703 33.8949 76.0456 33.7119 76.0258 33.5107C76.006 33.3096 75.9961 33.1167 75.9961 32.932H75.959C75.6914 33.3519 75.3212 33.6967 74.8832 33.9336C74.4316 34.1475 73.9359 34.2518 73.4365 34.2378C73.1583 34.2363 72.8815 34.1989 72.6129 34.1265C72.3356 34.0525 72.0741 33.9284 71.8413 33.7605C71.6033 33.5865 71.4058 33.3629 71.2626 33.1051C71.0998 32.8015 71.0205 32.4602 71.0326 32.1159C71.0074 31.6556 71.1527 31.2022 71.4407 30.8422C71.7355 30.5162 72.112 30.2746 72.5313 30.1424C73.0388 29.9789 73.5647 29.8792 74.0968 29.8456C74.6854 29.8011 75.2962 29.7788 75.9294 29.7788L75.9368 29.5636ZM75.64 30.5875C75.2245 30.5875 74.8066 30.6048 74.3861 30.6395C73.999 30.6679 73.616 30.7376 73.2436 30.8472C72.9339 30.9338 72.6475 31.0884 72.4052 31.2998C72.2969 31.3992 72.2115 31.5211 72.1552 31.657C72.0988 31.7928 72.0727 31.9393 72.0787 32.0862C72.0714 32.3026 72.12 32.5172 72.2197 32.7094C72.3106 32.8743 72.4405 33.0144 72.5981 33.1175C72.759 33.2225 72.9374 33.2979 73.1248 33.3401C73.3171 33.3845 73.5137 33.4069 73.711 33.4069C74.0371 33.4129 74.3608 33.3496 74.6606 33.2214C74.9259 33.1085 75.1638 32.9398 75.3581 32.7268C75.5483 32.5097 75.6944 32.2577 75.7884 31.9848C75.888 31.7037 75.9382 31.4075 75.9368 31.1093V30.59L75.64 30.5875Z" fill="white"/>
    <path d="M91.2209 27.1152C91.2407 27.3032 91.2555 27.5109 91.2654 27.7385C91.2753 27.966 91.2803 28.1539 91.2803 28.3023H91.3099C91.5217 27.881 91.8586 27.5354 92.2744 27.3131C92.7029 27.0653 93.1891 26.9348 93.6841 26.9347C94.5645 26.9347 95.224 27.1969 95.6626 27.7212C96.125 28.3119 96.3594 29.0493 96.3229 29.7986V34.0573H95.3139V30.2165C95.3166 29.8847 95.2867 29.5533 95.2249 29.2273C95.1753 28.9548 95.0719 28.6951 94.9207 28.4631C94.7751 28.2498 94.5754 28.079 94.342 27.9685C94.0552 27.8407 93.7431 27.7798 93.4294 27.7904C93.1612 27.7906 92.896 27.8462 92.6504 27.9536C92.3916 28.0667 92.161 28.2356 91.9752 28.4483C91.7626 28.6961 91.6013 28.9835 91.5004 29.294C91.3741 29.6845 91.314 30.0932 91.3223 30.5034V34.0647H90.3133V28.6486C90.3133 28.4606 90.3083 28.2182 90.2984 27.9215C90.2885 27.6247 90.2737 27.3576 90.2539 27.1202L91.2209 27.1152Z" fill="white"/>
    <path d="M113.464 28.7624C113.309 28.4689 113.075 28.2247 112.789 28.0576C112.477 27.8719 112.12 27.7768 111.758 27.7831C111.578 27.7833 111.399 27.8032 111.223 27.8424C111.055 27.8781 110.894 27.9434 110.749 28.0353C110.612 28.1219 110.498 28.2387 110.415 28.3766C110.327 28.5264 110.283 28.6978 110.289 28.8712C110.284 29.0193 110.318 29.1659 110.389 29.2962C110.459 29.4266 110.563 29.5359 110.689 29.6132C111.081 29.8315 111.508 29.9796 111.95 30.0509C112.606 30.152 113.229 30.4062 113.768 30.7928C113.96 30.949 114.113 31.1476 114.214 31.373C114.316 31.5983 114.364 31.8442 114.354 32.0912C114.369 32.4172 114.301 32.7415 114.155 33.0336C114.01 33.3257 113.792 33.5759 113.523 33.7606C113.27 33.9364 112.985 34.0623 112.685 34.1315C112.376 34.2054 112.06 34.2427 111.743 34.2428C111.216 34.2426 110.695 34.1314 110.214 33.9164C109.719 33.699 109.296 33.3436 108.998 32.8925L109.799 32.299C110.001 32.6292 110.285 32.9021 110.622 33.0918C110.96 33.2814 111.341 33.3814 111.728 33.3822C111.937 33.3827 112.146 33.3628 112.351 33.3228C112.536 33.2884 112.713 33.2178 112.87 33.1151C113.029 33.0145 113.159 32.8737 113.246 32.7069C113.333 32.5401 113.374 32.3533 113.365 32.1654C113.368 31.9916 113.319 31.8208 113.226 31.6743C113.132 31.5279 112.997 31.4123 112.838 31.3419C112.353 31.1129 111.842 30.9411 111.317 30.8299C111.11 30.7805 110.887 30.7186 110.657 30.6445C110.425 30.5716 110.207 30.4613 110.012 30.318C109.811 30.1739 109.642 29.9894 109.517 29.7764C109.38 29.5267 109.314 29.2447 109.324 28.9603C109.314 28.6433 109.385 28.329 109.532 28.0477C109.666 27.7997 109.857 27.5863 110.088 27.4245C110.329 27.2568 110.598 27.1337 110.882 27.0609C111.182 26.9813 111.492 26.9414 111.802 26.9422C112.291 26.9434 112.772 27.055 113.212 27.2687C113.639 27.4635 113.996 27.7846 114.236 28.1887L113.464 28.7624Z" fill="white"/>
    <path d="M128.418 24.4443C128.422 24.5406 128.404 24.6364 128.366 24.7249C128.327 24.8133 128.27 24.8923 128.198 24.9563C128.067 25.0867 127.889 25.16 127.704 25.16C127.518 25.16 127.341 25.0867 127.209 24.9563C127.14 24.8904 127.084 24.811 127.046 24.723C127.008 24.635 126.989 24.5402 126.989 24.4443C126.989 24.3485 127.008 24.2537 127.046 24.1657C127.084 24.0776 127.14 23.9983 127.209 23.9324C127.341 23.8019 127.518 23.7287 127.704 23.7287C127.889 23.7287 128.067 23.8019 128.198 23.9324C128.27 23.9963 128.327 24.0753 128.366 24.1638C128.404 24.2523 128.422 24.3481 128.418 24.4443ZM128.213 34.0598H127.204V27.1153H128.213V34.0598Z" fill="white"/>
    <path d="M144.859 27.9611H142.9V32.012C142.896 32.2258 142.923 32.4391 142.98 32.6451C143.015 32.7923 143.089 32.9278 143.192 33.0384C143.285 33.1314 143.401 33.1979 143.529 33.2313C143.663 33.2668 143.802 33.2842 143.942 33.2832C144.09 33.2818 144.238 33.2619 144.382 33.2239C144.532 33.1846 144.678 33.1299 144.817 33.0606L144.862 33.9361C144.682 34.0059 144.495 34.0581 144.305 34.0919C144.097 34.1279 143.886 34.1453 143.675 34.1438C143.475 34.1423 143.277 34.1174 143.083 34.0697C142.872 34.0187 142.673 33.9225 142.502 33.7877C142.314 33.6366 142.164 33.4434 142.065 33.2239C141.94 32.9286 141.881 32.6094 141.894 32.289V27.9611H140.457V27.1153H141.894V25.1566H142.903V27.1153H144.862L144.859 27.9611Z" fill="white"/>
    </symbol>


    <symbol id="icon__profile" width="24" height="24" viewBox="0 0 24 24" fill="none" xmlns="http://www.w3.org/2000/svg">
        <path d="M12 15C15.3137 15 18 12.3137 18 9C18 5.68629 15.3137 3 12 3C8.68629 3 6 5.68629 6 9C6 12.3137 8.68629 15 12 15Z" stroke-width="2" stroke-miterlimit="10"/>
        <path d="M2.90527 20.2491C3.82736 18.6531 5.15322 17.3278 6.74966 16.4064C8.34611 15.485 10.1569 15 12.0002 15C13.8434 15 15.6542 15.4851 17.2506 16.4065C18.8471 17.3279 20.1729 18.6533 21.0949 20.2493" stroke-width="2" stroke-linecap="round" stroke-linejoin="round"/>
    </symbol>
    <symbol id="icon__check" width="24" height="24" viewBox="0 0 24 24" fill="none" xmlns="http://www.w3.org/2000/svg">
        <path d="M4.125 13.4318V4.875C4.125 4.67609 4.20402 4.48532 4.34467 4.34467C4.48532 4.20402 4.67609 4.125 4.875 4.125H19.125C19.3239 4.125 19.5147 4.20402 19.6553 4.34467C19.796 4.48532 19.875 4.67609 19.875 4.875V19.125C19.875 19.3239 19.796 19.5147 19.6553 19.6553C19.5147 19.796 19.3239 19.875 19.125 19.875H12.7159" stroke-width="2" stroke-linecap="round" stroke-linejoin="round"/>
        <path d="M12 14.25L6 20.25L3 17.25" stroke-width="2" stroke-linecap="round" stroke-linejoin="round"/>
    </symbol>
    <symbol id="icon__pencil" width="24" height="24" viewBox="0 0 24 24" fill="none" xmlns="http://www.w3.org/2000/svg">
        <path d="M12 15H9V12L18 3L21 6L12 15Z" stroke-width="2" stroke-linecap="round" stroke-linejoin="round"/>
        <path d="M15.75 5.25L18.75 8.25" stroke-width="2" stroke-linecap="round" stroke-linejoin="round"/>
        <path d="M20.25 11.25V19.5C20.25 19.6989 20.171 19.8897 20.0303 20.0303C19.8897 20.171 19.6989 20.25 19.5 20.25H4.5C4.30109 20.25 4.11032 20.171 3.96967 20.0303C3.82902 19.8897 3.75 19.6989 3.75 19.5V4.5C3.75 4.30109 3.82902 4.11032 3.96967 3.96967C4.11032 3.82902 4.30109 3.75 4.5 3.75H12.75" stroke-width="2" stroke-linecap="round" stroke-linejoin="round"/>
    </symbol>
    <symbol id="icon__events" width="24" height="24" viewBox="0 0 24 24" fill="none" xmlns="http://www.w3.org/2000/svg">
        <path d="M5.26855 9.74994C5.26731 8.86045 5.44213 7.97951 5.78294 7.1579C6.12375 6.33628 6.62381 5.59025 7.25429 4.9628C7.88476 4.33535 8.6332 3.83889 9.45644 3.50204C10.2797 3.16519 11.1615 2.99461 12.0509 3.00013C15.7625 3.02772 18.7312 6.11275 18.7312 9.83468V10.4999C18.7312 13.8577 19.4337 15.8061 20.0524 16.871C20.1191 16.9848 20.1546 17.1142 20.1553 17.246C20.156 17.3779 20.1219 17.5076 20.0565 17.6221C19.991 17.7366 19.8966 17.8318 19.7826 17.8982C19.6686 17.9645 19.5392 17.9996 19.4073 17.9999H4.59173C4.45985 17.9996 4.33038 17.9645 4.2164 17.8981C4.10242 17.8318 4.00795 17.7366 3.94252 17.622C3.8771 17.5075 3.84303 17.3778 3.84376 17.2459C3.84449 17.114 3.87999 16.9846 3.94667 16.8709C4.56573 15.8059 5.26855 13.8575 5.26855 10.4999L5.26855 9.74994Z" stroke-width="2" stroke-linecap="round" stroke-linejoin="round"/>
        <path d="M9 18V18.75C9 19.5456 9.31607 20.3087 9.87868 20.8713C10.4413 21.4339 11.2044 21.75 12 21.75C12.7956 21.75 13.5587 21.4339 14.1213 20.8713C14.6839 20.3087 15 19.5456 15 18.75V18" stroke-width="2" stroke-linecap="round" stroke-linejoin="round"/>
    </symbol>
    <symbol id="icon__exit" width="24" height="24" viewBox="0 0 24 24" xmlns="http://www.w3.org/2000/svg">
        <path fill-rule="evenodd" clip-rule="evenodd" d="M11 20C11 19.7348 10.8946 19.4804 10.7071 19.2929C10.5196 19.1054 10.2652 19 10 19H5V5H10C10.2652 5 10.5196 4.89464 10.7071 4.70711C10.8946 4.51957 11 4.26522 11 4C11 3.73478 10.8946 3.48043 10.7071 3.29289C10.5196 3.10536 10.2652 3 10 3H5C4.46957 3 3.96086 3.21071 3.58579 3.58579C3.21071 3.96086 3 4.46957 3 5V19C3 19.5304 3.21071 20.0391 3.58579 20.4142C3.96086 20.7893 4.46957 21 5 21H10C10.2652 21 10.5196 20.8946 10.7071 20.7071C10.8946 20.5196 11 20.2652 11 20Z" />
        <path d="M21.714 12.7001C21.8969 12.5142 21.9996 12.2639 22 12.0031V11.9971C21.9995 11.7329 21.8941 11.4797 21.707 11.2931L17.707 7.29308C17.6148 7.19757 17.5044 7.12139 17.3824 7.06898C17.2604 7.01657 17.1292 6.98898 16.9964 6.98783C16.8636 6.98668 16.7319 7.01198 16.609 7.06226C16.4862 7.11254 16.3745 7.18679 16.2806 7.28069C16.1867 7.37458 16.1125 7.48623 16.0622 7.60913C16.0119 7.73202 15.9866 7.8637 15.9877 7.99648C15.9889 8.12926 16.0165 8.26048 16.0689 8.38249C16.1213 8.50449 16.1975 8.61483 16.293 8.70708L18.586 11.0001H9C8.73478 11.0001 8.48043 11.1054 8.29289 11.293C8.10536 11.4805 8 11.7349 8 12.0001C8 12.2653 8.10536 12.5197 8.29289 12.7072C8.48043 12.8947 8.73478 13.0001 9 13.0001H18.586L16.293 15.2931C16.1108 15.4817 16.01 15.7343 16.0123 15.9965C16.0146 16.2587 16.1198 16.5095 16.3052 16.6949C16.4906 16.8803 16.7414 16.9855 17.0036 16.9878C17.2658 16.99 17.5184 16.8892 17.707 16.7071L21.707 12.7071L21.714 12.7001Z"/>
    </symbol>
    <symbol id="icon__user" width="104" height="104" viewBox="0 0 104 104" fill="none" xmlns="http://www.w3.org/2000/svg">
        <circle cx="52" cy="52" r="51.5702" stroke="#D4D4D4" stroke-width="0.859504"/>
        <mask id="mask0" mask-type="alpha" maskUnits="userSpaceOnUse" x="0" y="0" width="104" height="104">
            <circle cx="52" cy="52" r="51.5702" fill="#C4C4C4" stroke="#969696" stroke-width="0.859504"/>
        </mask>
        <g mask="url(#mask0)">
            <path d="M52.2584 82.7758C68.4798 82.7758 82.1691 85.4117 82.1691 95.5814C82.1691 105.755 68.3901 108.297 52.2584 108.297C36.0407 108.297 22.3477 105.661 22.3477 95.4917C22.3477 85.3182 36.1267 82.7758 52.2584 82.7758ZM52.2584 33.5205C63.2472 33.5205 72.0518 42.3218 72.0518 53.3029C72.0518 64.284 63.2472 73.0891 52.2584 73.0891C41.2733 73.0891 32.465 64.284 32.465 53.3029C32.465 42.3218 41.2733 33.5205 52.2584 33.5205Z" fill="#C5C5C5"/>
        </g>
    </symbol>
    <symbol id="icon__edit" width="24" height="24" viewBox="0 0 24 24" fill="none" xmlns="http://www.w3.org/2000/svg">
        <path d="M9 20.2499H4.5C4.30109 20.2499 4.11032 20.1709 3.96967 20.0302C3.82902 19.8896 3.75 19.6988 3.75 19.4999V15.3105C3.75 15.2121 3.7694 15.1145 3.80709 15.0235C3.84478 14.9325 3.90003 14.8499 3.96967 14.7802L15.2197 3.53022C15.3603 3.38956 15.5511 3.31055 15.75 3.31055C15.9489 3.31055 16.1397 3.38956 16.2803 3.53022L20.4697 7.71956C20.6103 7.86021 20.6893 8.05097 20.6893 8.24989C20.6893 8.4488 20.6103 8.63956 20.4697 8.78022L9 20.2499Z" stroke-width="2" stroke-linecap="round" stroke-linejoin="round"/>
        <path d="M12.75 6L18 11.25" stroke-width="2" stroke-linecap="round" stroke-linejoin="round"/>
    </symbol>
    <symbol id="icon__email" width="32" height="32" viewBox="0 0 32 32" xmlns="http://www.w3.org/2000/svg">
        <path d="M26.667 5.33325H5.33366C3.86699 5.33325 2.68033 6.53325 2.68033 7.99992L2.66699 23.9999C2.66699 25.4666 3.86699 26.6666 5.33366 26.6666H26.667C28.1337 26.6666 29.3337 25.4666 29.3337 23.9999V7.99992C29.3337 6.53325 28.1337 5.33325 26.667 5.33325ZM26.1337 10.9999L16.707 16.8933C16.2803 17.1599 15.7203 17.1599 15.2937 16.8933L5.86699 10.9999C5.7333 10.9249 5.61622 10.8235 5.52284 10.7019C5.42947 10.5802 5.36174 10.441 5.32376 10.2924C5.28578 10.1439 5.27833 9.98917 5.30187 9.83766C5.32541 9.68616 5.37944 9.541 5.4607 9.41099C5.54196 9.28097 5.64876 9.16879 5.77463 9.08125C5.9005 8.9937 6.04282 8.9326 6.19299 8.90165C6.34315 8.8707 6.49804 8.87054 6.64827 8.90118C6.79849 8.93182 6.94094 8.99263 7.06699 9.07992L16.0003 14.6666L24.9337 9.07992C25.0597 8.99263 25.2022 8.93182 25.3524 8.90118C25.5026 8.87054 25.6575 8.8707 25.8077 8.90165C25.9578 8.9326 26.1002 8.9937 26.226 9.08125C26.3519 9.16879 26.4587 9.28097 26.54 9.41099C26.6212 9.541 26.6752 9.68616 26.6988 9.83766C26.7223 9.98917 26.7149 10.1439 26.6769 10.2924C26.6389 10.441 26.5712 10.5802 26.4778 10.7019C26.3844 10.8235 26.2674 10.9249 26.1337 10.9999Z"/>
    </symbol>

    <symbol id="icon__telegram" width="32" height="32" viewBox="0 0 32 32" xmlns="http://www.w3.org/2000/svg">
        <path fill-rule="evenodd" clip-rule="evenodd" d="M32 16C32 24.836 24.836 32 16 32C7.164 32 0 24.836 0 16C0 7.164 7.164 0 16 0C24.836 0 32 7.164 32 16ZM16.5733 11.812C15.0173 12.4587 11.9067 13.7987 7.24267 15.8307C6.48533 16.132 6.088 16.4267 6.052 16.7147C5.99067 17.2027 6.60133 17.3947 7.43067 17.6547C7.544 17.6907 7.66133 17.7267 7.78133 17.7667C8.59867 18.032 9.69733 18.3427 10.268 18.3547C10.7867 18.3653 11.3653 18.152 12.004 17.7147C16.3613 14.772 18.6107 13.2853 18.752 13.2533C18.852 13.2307 18.9907 13.2013 19.084 13.2853C19.1773 13.368 19.168 13.5253 19.1587 13.568C19.0973 13.8253 16.7053 16.0507 15.4653 17.2027C15.0787 17.5613 14.8053 17.816 14.7493 17.8747C14.624 18.004 14.496 18.128 14.3733 18.2467C13.6133 18.9773 13.0453 19.5267 14.4053 20.4227C15.0587 20.8533 15.5813 21.2093 16.1027 21.564C16.672 21.952 17.24 22.3387 17.976 22.8213C18.1627 22.944 18.3413 23.0707 18.516 23.1947C19.1787 23.668 19.7747 24.092 20.5107 24.0253C20.9373 23.9853 21.38 23.584 21.604 22.3853C22.1333 19.5507 23.176 13.412 23.4173 10.8813C23.432 10.6712 23.4231 10.4601 23.3907 10.252C23.3713 10.0839 23.2894 9.92924 23.1613 9.81867C22.9707 9.66267 22.6747 9.62933 22.5413 9.632C21.94 9.64267 21.0173 9.964 16.5733 11.812Z"/>
    </symbol>

    <symbol id="icon__sort" width="12" height="12" viewBox="0 0 12 12" fill="none" xmlns="http://www.w3.org/2000/svg">
        <path d="M9.75 4.5L6 8.25L2.25 4.5L9.75 4.5Z" fill="lightgray" stroke="lightgray" stroke-width="2" stroke-linecap="round" stroke-linejoin="round"/>
    </symbol>
    <symbol id="icon__sort--active" width="12" height="12" viewBox="0 0 12 12" fill="none" xmlns="http://www.w3.org/2000/svg">
        <path d="M9.75 4.5L6 8.25L2.25 4.5L9.75 4.5Z" fill="#292C34" stroke="#292C34" stroke-width="2" stroke-linecap="round" stroke-linejoin="round"/>
    </symbol>
    <symbol id="icon__clear" width="24" height="24" viewBox="0 0 24 24" fill="none" xmlns="http://www.w3.org/2000/svg">
        <path d="M18.75 5.25L5.25 18.75" stroke="#A6A6A6" stroke-width="2" stroke-linecap="round" stroke-linejoin="round"/>
        <path d="M18.75 18.75L5.25 5.25" stroke="#A6A6A6" stroke-width="2" stroke-linecap="round" stroke-linejoin="round"/>
    </symbol>
    <symbol id="icon__question" width="20" height="20" viewBox="0 0 20 20" fill="none" xmlns="http://www.w3.org/2000/svg">
        <circle cx="10" cy="10" r="10" fill="#EFF0F2"/>
        <path d="M2.4 6.36C2.4 6.032 2.472 5.728 2.616 5.448C2.76 5.168 2.936 4.928 3.144 4.728C3.352 4.52 3.56 4.324 3.768 4.14C3.976 3.948 4.152 3.744 4.296 3.528C4.44 3.304 4.512 3.072 4.512 2.832C4.512 2.496 4.396 2.24 4.164 2.064C3.932 1.88 3.62 1.788 3.228 1.788C2.852 1.788 2.528 1.884 2.256 2.076C1.984 2.268 1.788 2.54 1.668 2.892L0.48 2.22C0.704 1.652 1.064 1.216 1.56 0.912C2.064 0.599999 2.632 0.443999 3.264 0.443999C3.976 0.443999 4.592 0.647999 5.112 1.056C5.632 1.464 5.892 2.028 5.892 2.748C5.892 3.084 5.82 3.4 5.676 3.696C5.532 3.984 5.356 4.232 5.148 4.44C4.94 4.648 4.732 4.852 4.524 5.052C4.316 5.244 4.14 5.452 3.996 5.676C3.852 5.9 3.78 6.128 3.78 6.36H2.4ZM3.732 8.88C3.556 9.056 3.344 9.144 3.096 9.144C2.848 9.144 2.636 9.056 2.46 8.88C2.284 8.704 2.196 8.492 2.196 8.244C2.196 7.996 2.28 7.784 2.448 7.608C2.624 7.432 2.84 7.344 3.096 7.344C3.344 7.344 3.556 7.432 3.732 7.608C3.908 7.784 3.996 7.996 3.996 8.244C3.996 8.492 3.908 8.704 3.732 8.88Z" fill="#292C34" transform="translate(7, 5)"/>
    </symbol>


    <symbol id="icon__checked" width="20" height="20" viewBox="0 0 20 20" fill="none" xmlns="http://www.w3.org/2000/svg">
        <path d="M16.875 5.62549L8.125 14.3751L3.75 10.0005" stroke="white" stroke-width="2" stroke-linecap="round" stroke-linejoin="round"/>
    </symbol>
    <symbol id="icon__checked2" width="24" height="24" viewBox="0 0 24 24" fill="none" xmlns="http://www.w3.org/2000/svg">
        <path d="M20.25 6.75098L9.75 17.2505L4.5 12.001" stroke="#4C64A3" stroke-width="2" stroke-linecap="round" stroke-linejoin="round"/>
    </symbol>

    <symbol id="icon__back" width="40" height="40" viewBox="0 0 40 40" fill="none" xmlns="http://www.w3.org/2000/svg">
        <path d="M25 32.5L12.5 20L25 7.5" stroke="black" stroke-width="4" stroke-linecap="round" stroke-linejoin="round"/>
    </symbol>
    <symbol id="icon__download" width="24" height="20" viewBox="0 0 24 20" fill="none" xmlns="http://www.w3.org/2000/svg">
        <path d="M8.0625 8.59448L12 11.8749L15.9375 8.59448" stroke-linecap="round" stroke-linejoin="round"/>
        <path d="M12 3.125V11.8727" stroke-linecap="round" stroke-linejoin="round"/>
        <path d="M20.25 11.875V16.25C20.25 16.4158 20.171 16.5747 20.0303 16.6919C19.8897 16.8092 19.6989 16.875 19.5 16.875H4.5C4.30109 16.875 4.11032 16.8092 3.96967 16.6919C3.82902 16.5747 3.75 16.4158 3.75 16.25V11.875" stroke-linecap="round" stroke-linejoin="round"/>
    </symbol>

    <symbol id="icon__close" width="22" height="22" viewBox="0 0 22 22" fill="none" xmlns="http://www.w3.org/2000/svg">
        <rect x="16.0039" y="5.00391" width="1.41427" height="15.557" rx="0.707135" transform="rotate(45 16.0039 5.00391)" fill="#FF6060"/>
        <rect x="5.00391" y="5.99805" width="1.41427" height="15.557" rx="0.707134" transform="rotate(-45 5.00391 5.99805)" fill="#FF6060"/>
    </symbol>
    <symbol id="icon__phone" width="28" height="28" viewBox="0 0 28 28" xmlns="http://www.w3.org/2000/svg">
        <path d="M11.8382 16.0534C13.4618 17.7004 15.4263 18.972 17.5937 19.7789L20.526 17.4456C20.6129 17.3857 20.716 17.3537 20.8215 17.3537C20.9271 17.3537 21.0301 17.3857 21.1171 17.4456L26.5615 20.9534C26.7682 21.0776 26.9432 21.2483 27.0726 21.4518C27.202 21.6553 27.2823 21.8861 27.3072 22.126C27.3321 22.3659 27.3009 22.6082 27.216 22.834C27.1312 23.0597 26.995 23.2626 26.8182 23.4267L24.2671 25.9467C23.9017 26.3077 23.4527 26.5726 22.96 26.7178C22.4674 26.863 21.9465 26.884 21.4437 26.7789C16.4288 25.7432 11.8064 23.3174 8.10485 19.7789C4.48544 16.2052 1.98084 11.658 0.894847 6.68893C0.787565 6.19398 0.809957 5.67971 0.959851 5.19597C1.10975 4.71222 1.38206 4.27539 1.7504 3.92782L4.39485 1.37671C4.55849 1.20854 4.75806 1.07958 4.97861 0.999468C5.19915 0.91936 5.43497 0.890183 5.66839 0.914124C5.90181 0.938065 6.12679 1.0145 6.32649 1.13771C6.52618 1.26092 6.69541 1.42771 6.82151 1.6256L10.446 7.00004C10.5085 7.08443 10.5422 7.18668 10.5422 7.29171C10.5422 7.39673 10.5085 7.49898 10.446 7.58337L8.05818 10.4534C8.88696 12.5774 10.1782 14.4904 11.8382 16.0534Z"/>
    </symbol>
    <symbol id="icon__plus" width="24" height="24" viewBox="0 0 24 24" fill="none" xmlns="http://www.w3.org/2000/svg">
        <path d="M3.75 12H20.25" stroke-width="2" stroke-linecap="round" stroke-linejoin="round"/>
        <path d="M12 3.75V20.25" stroke-width="2" stroke-linecap="round" stroke-linejoin="round"/>
    </symbol>
    <symbol id="icon__search" width="32" height="32" viewBox="0 0 32 32" fill="none" xmlns="http://www.w3.org/2000/svg">
        <path d="M14.5 25C20.299 25 25 20.299 25 14.5C25 8.70101 20.299 4 14.5 4C8.70101 4 4 8.70101 4 14.5C4 20.299 8.70101 25 14.5 25Z" stroke="#99A3B7" stroke-width="2" stroke-linecap="round" stroke-linejoin="round"/>
        <path d="M21.9238 21.925L27.9989 28.0001" stroke="#99A3B7" stroke-width="2" stroke-linecap="round" stroke-linejoin="round"/>
    </symbol>
    <symbol id="icon__filter" width="32" height="32" viewBox="0 0 32 32" fill="none" xmlns="http://www.w3.org/2000/svg">
        <path d="M13.3335 22.9867L15.1113 23.8756V18.0178C15.1103 17.7846 15.0178 17.5612 14.8535 17.3956L9.09355 11.5556H22.9247L17.1735 17.3956C17.0093 17.5612 16.9168 17.7846 16.9158 18.0178L16.8891 24.8889L18.6669 25.7778V18.3823L24.5158 12.4445C24.7497 12.2071 24.8834 11.8889 24.8891 11.5556V10.6667C24.8891 10.431 24.7955 10.2049 24.6288 10.0382C24.4621 9.87148 24.236 9.77783 24.0002 9.77783H8.00022C7.76447 9.77783 7.53838 9.87148 7.37168 10.0382C7.20498 10.2049 7.11133 10.431 7.11133 10.6667V11.5556C7.11701 11.8889 7.25069 12.2071 7.48466 12.4445L13.3335 18.3823V22.9867Z" fill="#4C64A3"/>
    </symbol>
    <symbol id="icon__pencil2" width="24" height="24" viewBox="0 0 24 24" fill="none" xmlns="http://www.w3.org/2000/svg">
        <path d="M9 20.25H4.5C4.30109 20.25 4.11032 20.171 3.96967 20.0303C3.82902 19.8897 3.75 19.6989 3.75 19.5V15.3107C3.75 15.2122 3.7694 15.1147 3.80709 15.0237C3.84478 14.9327 3.90003 14.85 3.96967 14.7803L15.2197 3.53034C15.3603 3.38969 15.5511 3.31067 15.75 3.31067C15.9489 3.31067 16.1397 3.38969 16.2803 3.53034L20.4697 7.71968C20.6103 7.86033 20.6893 8.0511 20.6893 8.25001C20.6893 8.44892 20.6103 8.63969 20.4697 8.78034L9 20.25Z" stroke="#4C64A3" stroke-linecap="round" stroke-linejoin="round"/>
        <path d="M12.75 6L18 11.25" stroke="#4C64A3" stroke-linecap="round" stroke-linejoin="round"/>
        <path d="M20.2501 20.25H9.00013L3.79785 15.0477" stroke="#4C64A3" stroke-linecap="round" stroke-linejoin="round"/>
    </symbol>
    <symbol id="icon__link" width="24" height="24" viewBox="0 0 24 24" fill="none" xmlns="http://www.w3.org/2000/svg">
        <path d="M11.4693 6.69656L13.3255 4.8404C13.7085 4.45707 14.1632 4.15295 14.6638 3.94541C15.1643 3.73787 15.7008 3.63099 16.2427 3.63086C16.7846 3.63073 17.3211 3.73737 17.8218 3.94467C18.3224 4.15198 18.7773 4.45589 19.1605 4.83904C19.5436 5.2222 19.8475 5.67709 20.0548 6.17773C20.2621 6.67838 20.3688 7.21496 20.3687 7.75682C20.3685 8.29868 20.2616 8.83521 20.0541 9.33576C19.8466 9.8363 19.5424 10.2911 19.1591 10.674L16.5075 13.3257C16.1244 13.7087 15.6697 14.0126 15.1692 14.2199C14.6687 14.4272 14.1323 14.5339 13.5906 14.5339C13.0489 14.5339 12.5125 14.4272 12.0121 14.2199C11.5116 14.0126 11.0569 13.7087 10.6738 13.3257" stroke="#4C64A3" stroke-width="2" stroke-linecap="round" stroke-linejoin="round"/>
        <path d="M12.5302 17.3031L10.674 19.1593C10.2911 19.5426 9.8363 19.8467 9.33576 20.0543C8.83521 20.2618 8.29868 20.3687 7.75682 20.3688C7.21496 20.369 6.67838 20.2623 6.17773 20.055C5.67709 19.8477 5.2222 19.5438 4.83904 19.1606C4.45589 18.7775 4.15198 18.3226 3.94467 17.822C3.73737 17.3213 3.63073 16.7847 3.63086 16.2429C3.63099 15.701 3.73787 15.1645 3.94541 14.6639C4.15295 14.1634 4.45707 13.7086 4.8404 13.3257L7.49205 10.674C7.87509 10.291 8.32983 9.98712 8.8303 9.77982C9.33077 9.57252 9.86717 9.46582 10.4089 9.46582C10.9506 9.46582 11.487 9.57252 11.9874 9.77982C12.4879 9.98712 12.9426 10.291 13.3257 10.674" stroke="#4C64A3" stroke-width="2" stroke-linecap="round" stroke-linejoin="round"/>
    </symbol>
    <symbol id="icon__bell" width="24" height="24" viewBox="0 0 24 24" fill="none" xmlns="http://www.w3.org/2000/svg">
        <path d="M5.26855 9.74994C5.26731 8.86045 5.44213 7.97951 5.78294 7.1579C6.12375 6.33628 6.62381 5.59025 7.25429 4.9628C7.88476 4.33535 8.6332 3.83889 9.45644 3.50204C10.2797 3.16519 11.1615 2.99461 12.0509 3.00013C15.7625 3.02772 18.7312 6.11275 18.7312 9.83468V10.4999C18.7312 13.8577 19.4337 15.8061 20.0524 16.871C20.1191 16.9848 20.1546 17.1142 20.1553 17.246C20.156 17.3779 20.1219 17.5076 20.0565 17.6221C19.991 17.7366 19.8966 17.8318 19.7826 17.8982C19.6686 17.9645 19.5392 17.9996 19.4073 17.9999H4.59173C4.45985 17.9996 4.33038 17.9645 4.2164 17.8981C4.10242 17.8318 4.00795 17.7366 3.94252 17.622C3.8771 17.5075 3.84303 17.3778 3.84376 17.2459C3.84449 17.114 3.87999 16.9846 3.94667 16.8709C4.56573 15.8059 5.26855 13.8575 5.26855 10.4999L5.26855 9.74994Z" fill="#292C34" stroke="#292C34" stroke-width="2" stroke-linecap="round" stroke-linejoin="round"/>
        <path d="M9 18V18.75C9 19.5456 9.31607 20.3087 9.87868 20.8713C10.4413 21.4339 11.2044 21.75 12 21.75C12.7956 21.75 13.5587 21.4339 14.1213 20.8713C14.6839 20.3087 15 19.5456 15 18.75V18" fill="#292C34"/>
        <path d="M9 18V18.75C9 19.5456 9.31607 20.3087 9.87868 20.8713C10.4413 21.4339 11.2044 21.75 12 21.75C12.7956 21.75 13.5587 21.4339 14.1213 20.8713C14.6839 20.3087 15 19.5456 15 18.75V18" stroke="#292C34" stroke-width="2" stroke-linecap="round" stroke-linejoin="round"/>
    </symbol>
    <symbol id="icon__settings" width="24" height="24" viewBox="0 0 24 24" fill="none" xmlns="http://www.w3.org/2000/svg">
        <path d="M4.90432 8.58738C5.07307 8.23113 5.26994 7.89363 5.49494 7.56551L5.45744 5.12801C5.45744 4.90301 5.55119 4.68739 5.72932 4.53739C6.60119 3.80614 7.59495 3.21551 8.69182 2.82176C8.90745 2.74676 9.14182 2.76551 9.32932 2.88739L11.4199 4.14364C11.8137 4.11551 12.2074 4.11551 12.6012 4.14364L14.6918 2.88739C14.8887 2.77489 15.1231 2.74676 15.3387 2.82176C16.4075 3.20614 17.4106 3.77801 18.3012 4.52801C18.47 4.66864 18.5731 4.89364 18.5637 5.11864L18.5262 7.55614C18.7512 7.88426 18.9481 8.22176 19.1168 8.57801L21.245 9.75926C21.4418 9.87176 21.5825 10.0593 21.62 10.2843C21.8168 11.3999 21.8262 12.5624 21.62 13.6968C21.5825 13.9218 21.4418 14.1093 21.245 14.2218L19.1168 15.403C18.9481 15.7593 18.7512 16.0968 18.5262 16.4249L18.5637 18.8624C18.5637 19.0874 18.47 19.303 18.2918 19.453C17.42 20.1843 16.4262 20.7749 15.3293 21.1686C15.1137 21.2436 14.8793 21.2249 14.6918 21.103L12.6012 19.8468C12.2074 19.8749 11.8137 19.8749 11.4199 19.8468L9.32932 21.103C9.13245 21.2155 8.89807 21.2436 8.68245 21.1686C7.6137 20.7843 6.61057 20.2124 5.71994 19.4624C5.55119 19.3218 5.44807 19.0968 5.45744 18.8718L5.49494 16.4343C5.26994 16.1061 5.07307 15.7686 4.90432 15.4124L2.77619 14.2311C2.57932 14.1186 2.43869 13.9311 2.40119 13.7061C2.20432 12.5905 2.19494 11.428 2.40119 10.2936C2.43869 10.0686 2.57932 9.88113 2.77619 9.76863L4.90432 8.58738Z" stroke="#292C34" stroke-width="2" stroke-miterlimit="10" stroke-linecap="round" stroke-linejoin="round"/>
        <path d="M12 16.5C14.4853 16.5 16.5 14.4853 16.5 12C16.5 9.51472 14.4853 7.5 12 7.5C9.51472 7.5 7.5 9.51472 7.5 12C7.5 14.4853 9.51472 16.5 12 16.5Z" stroke="#292C34" stroke-width="2" stroke-miterlimit="10" stroke-linecap="round" stroke-linejoin="round"/>
    </symbol>
    <symbol id="icon__sync" width="24" height="24" viewBox="0 0 24 24" fill="none" xmlns="http://www.w3.org/2000/svg">
        <path d="M16.5156 9.34839H21.0156V4.84839" stroke="#4C64A3" stroke-width="2" stroke-linecap="round" stroke-linejoin="round"/>
        <path d="M17.8336 17.8336C16.6798 18.9874 15.2098 19.7732 13.6095 20.0915C12.0092 20.4098 10.3504 20.2464 8.84286 19.622C7.33537 18.9976 6.0469 17.9402 5.14038 16.5835C4.23385 15.2268 3.75 13.6317 3.75 12C3.75 10.3683 4.23385 8.77325 5.14038 7.41655C6.0469 6.05984 7.33537 5.00242 8.84286 4.378C10.3504 3.75357 12.0092 3.5902 13.6095 3.90853C15.2098 4.22685 16.6798 5.01259 17.8336 6.16637L21.0156 9.34835" stroke="#4C64A3" stroke-width="2" stroke-linecap="round" stroke-linejoin="round"/>
    </symbol>

</svg>